# xmcd CD database file
#
# Track frame offsets:
#	187
#	15550
#	29415
#	42557
#	56315
#	68852
#	79912
#	95662
#	112297
#	122710
#	134650
#	147265
#
# Disc length: 2131 seconds
#
# Revision: 2
# Processed by: cddbd v1.4PL0 Copyright (c) Steve Scherf et al.
# Submitted via: CDex 1.50Beta7
#
DISCID=b208510c
DTITLE=Doyle Lawson - Only God
DYEAR=1991
DGENRE=Bluegrass
TTITLE0=It Took Your Blood
TTITLE1=Only God
TTITLE2=The Mighty Number
TTITLE3=Coming to Carry Me Home
TTITLE4=We Need More Love
TTITLE5=Do a Little More For Him
TTITLE6=Give Them a Lift
TTITLE7=The Love of God
TTITLE8=Nearing the Shore
TTITLE9=The Shpherd of the Hills
TTITLE10=The Church at Hickory Grove
TTITLE11=God Is Love
EXTD=YEAR: 1991
EXTT0=
EXTT1=
EXTT2=
EXTT3=
EXTT4=
EXTT5=
EXTT6=
EXTT7=
EXTT8=
EXTT9=
EXTT10=
EXTT11=
PLAYORDER=
